<svg width="400" height="400" xmlns="http://www.w3.org/2000/svg">

 <g>
  <title>background</title>
  <rect fill="none" id="canvas_background" height="402" width="402" y="-1" x="-1"/>
 </g>
 <g>
  <title>Layer 1</title>
  <path stroke="null" id="svg_1" d="m50.76583,44l0,112.677357c80.180357,-47.186792 207.448883,-90.17547 293.0853,-112.677357l-293.0853,0zm303.641589,24.013207c-177.203334,37.279245 -316.214249,126.111319 -154.786045,105.960376c58.593338,-7.388679 102.597646,-15.784905 154.786045,-20.318868l0,-85.641508zm-88.838887,143.071696c-50.290638,0.839623 -146.246125,20.150943 -214.802703,25.524528l0,91.518867c214.921313,-44.499999 290.12005,-116.203772 214.802703,-117.043395zm88.838887,32.073584c-86.229467,47.85849 -220.614592,93.701885 -303.641589,111.501885l0,0.839623l303.641589,0l0,-112.341508zm-376.705347,-7.05283c-1.30471,4.366038 -5.9305,2.686792 -5.69328,-2.015094c0.11861,-6.213207 7.70965,-4.198113 5.69328,2.015094zm295.33889,-22.501886c-3.79552,-0.167925 -3.79552,-8.396226 0.23722,-8.396226c4.03274,0 3.5583,8.9 -0.23722,8.396226zm-7.35382,21.494339c0.94888,4.701887 -3.43969,7.556604 -5.21884,3.69434c-2.72803,-5.373585 3.91413,-9.571698 5.21884,-3.69434zm9.25158,4.533962c-4.38857,4.701887 -7.23521,-7.724528 -1.66054,-7.388679c2.72803,0 3.91413,5.20566 1.66054,7.388679z" fill="#809CC8"/>
 </g>
</svg>