<svg width="400" height="400" xmlns="http://www.w3.org/2000/svg">
 <!-- Created with Method Draw - http://github.com/duopixel/Method-Draw/ -->

 <g>
  <title>background</title>
  <rect fill="none" id="canvas_background" height="402" width="402" y="-1" x="-1"/>
  <g display="none" overflow="visible" y="0" x="0" height="100%" width="100%" id="canvasGrid">
   <rect fill="url(#gridpattern)" stroke-width="0" y="0" x="0" height="100%" width="100%"/>
  </g>
 </g>
 <g>
  <title>Layer 1</title>
  <g stroke="null" id="svg_8">
   <path stroke="null" id="svg_4" fill="#002A41" d="m68.250533,36.270511l0,179.858791l133.874481,76.312764l0,-51.874478l-89.560672,-51.053349l0,-80.188287l89.560672,51.052303l0,-47.793934l-133.874481,-76.31381z"/>
   <path stroke="null" id="svg_5" fill="#0071B5" d="m335.998448,36.270511l0,179.858791l-133.873435,76.312764l0,-51.874478l89.559626,-51.053349l0,-80.188287l-89.560672,51.052303l0,-47.793934l133.875527,-76.31381l-0.001046,0z"/>
   <path stroke="null" id="svg_6" fill="#0071B5" d="m68.250533,368.836419l0,-179.858791l133.874481,-76.31381l0,51.874478l-89.560672,51.052303l0,76.109835l89.560672,-51.052303l0,51.874478l-133.874481,76.31381z"/>
   <path stroke="null" id="svg_7" fill="#002A41" d="m335.998448,368.836419l0,-179.858791l-133.873435,-76.31381l0,51.874478l89.559626,51.052303l0,76.109835l-89.560672,-51.052303l0,51.874478l133.874481,76.31381z"/>
  </g>
 </g>
</svg>