<svg width="400" height="400" xmlns="http://www.w3.org/2000/svg">
 <metadata id="metadata3361">image/svg+xml</metadata>

 <g>
  <title>background</title>
  <rect fill="none" id="canvas_background" height="402" width="402" y="-1" x="-1"/>
 </g>
 <g>
  <title>Layer 1</title>
  <g stroke="null" id="svg_1">
   <path stroke="null" fill="#253b80" id="path3349" d="m137.808071,354.120285l5.625485,-35.732045l-12.530955,-0.290417l-59.836655,0l41.58341,-263.666355c0.129074,-0.795958 0.548565,-1.538134 1.161668,-2.065187c0.613103,-0.527053 1.398304,-0.81747 2.215774,-0.81747l100.893012,0c33.494759,0 56.6098,6.970008 68.678239,20.727168c5.657753,6.453711 9.261075,13.197839 11.003577,20.619606c1.828551,7.787478 1.86082,17.091577 0.075293,28.439352l-0.129074,0.828226l0,7.271181l5.657753,3.205343c4.76499,2.527703 8.551167,5.421117 11.455337,8.734022c4.840283,5.517923 7.970333,12.530955 9.293344,20.845486c1.366035,8.551167 0.914276,18.726518 -1.323011,30.246391c-2.581484,13.25162 -6.754884,24.793006 -12.391125,34.236936c-5.184481,8.701753 -11.788778,15.919153 -19.630037,21.512369c-7.486305,5.313555 -16.381669,9.347124 -26.438702,11.928609c-9.745103,2.53846 -20.856242,3.818446 -33.042999,3.818446l-7.852015,0c-5.614728,0 -11.068114,2.022163 -15.349076,5.646997c-4.291718,3.700128 -7.13135,8.755534 -8.002601,14.284213l-0.59159,3.216099l-9.938715,62.977461l-0.45176,2.31258c-0.118318,0.731421 -0.322686,1.097131 -0.623859,1.344523c-0.268905,0.22588 -0.656127,0.376466 -1.032594,0.376466l-48.478124,0z"/>
   <path stroke="null" fill="#179bd7" id="path3351" d="m307.562178,123.002145l0,0l0,0c-0.301173,1.925357 -0.645371,3.893739 -1.032594,5.915902c-13.3054,68.312529 -58.825574,91.911598 -116.962752,91.911598l-29.60102,0c-7.109838,0 -13.101033,5.162969 -14.20892,12.176001l0,0l0,0l-15.155464,96.117266l-4.291718,27.245416c-0.720664,4.603647 2.828877,8.755534 7.475548,8.755534l52.500937,0c6.217075,0 11.498361,-4.517598 12.477174,-10.648623l0.516297,-2.667534l9.884934,-62.730069l0.634615,-3.441979c0.968057,-6.152538 6.260099,-10.670135 12.477174,-10.670135l7.852015,0c50.865997,0 90.685393,-20.651875 102.323585,-80.413237c4.861795,-24.965105 2.344848,-45.810591 -10.519549,-60.47127c-3.893739,-4.420792 -8.723266,-8.088651 -14.370263,-11.07887z"/>
   <path stroke="null" fill="#222d65" id="path3353" d="m293.643675,117.451954c-2.032919,-0.59159 -4.130375,-1.129399 -6.281612,-1.613428c-2.161993,-0.473272 -4.377767,-0.892763 -6.658078,-1.258474c-7.981089,-1.290742 -16.725867,-1.903845 -26.094504,-1.903845l-79.07947,0c-1.946869,0 -3.796933,0.441004 -5.453386,1.236961c-3.646347,1.753258 -6.356905,5.205993 -7.013032,9.433174l-16.822673,106.550765l-0.484028,3.108537c1.107887,-7.013032 7.099082,-12.176001 14.20892,-12.176001l29.60102,0c58.137178,0 103.657352,-23.609825 116.962752,-91.911598c0.397979,-2.022163 0.731421,-3.990545 1.032594,-5.915902c-3.366686,-1.785527 -7.013032,-3.312905 -10.93904,-4.614403c-0.968057,-0.322686 -1.968382,-0.634615 -2.979463,-0.935788z"/>
   <path stroke="null" fill="#253b80" id="path3355" d="m163.063593,123.346343c0.656127,-4.227181 3.366686,-7.679916 7.013032,-9.422418c1.667209,-0.795958 3.506516,-1.236961 5.453386,-1.236961l79.07947,0c9.368637,0 18.113415,0.613103 26.094504,1.903845c2.280311,0.36571 4.496085,0.785201 6.658078,1.258474c2.151237,0.484028 4.248693,1.021838 6.281612,1.613428c1.011081,0.301173 2.011407,0.613103 2.990219,0.925032c3.926007,1.301498 7.572354,2.839633 10.93904,4.614403c3.958276,-25.244765 -0.032269,-42.433149 -13.681867,-57.997348c-15.047902,-17.134602 -42.207269,-24.47032 -76.960501,-24.47032l-100.893012,0c-7.099082,0 -13.154814,5.162969 -14.251945,12.186757l-42.024413,266.376913c-0.828226,5.27053 3.237612,10.024764 8.551167,10.024764l62.289065,0l15.639493,-99.225804l16.822673,-106.550765z"/>
  </g>
 </g>
</svg>