<svg width="400" height="400" xmlns="http://www.w3.org/2000/svg">

 <g>
  <title>background</title>
  <rect fill="none" id="canvas_background" height="402" width="402" y="-1" x="-1"/>
 </g>
 <g>
  <title>Layer 1</title>
  <path id="svg_1" d="m207.6,95.6l-20.7,41.8c6.8,6.3 11.6,14.6 13.5,24l15.6,0c1.8,-8.9 6.2,-16.9 12.5,-23.1l-20.9,-42.7z" fill="none"/>
  <path id="svg_2" d="m169.5,127.3l38.1,-77l38,77.5c1.5,-0.5 3,-0.9 4.5,-1.3l36.1,-106.5l-157.3,0l36,106.2c1.5,0.3 3.1,0.7 4.6,1.1z" fill="none"/>
  <path id="svg_3" d="m156.4,195.4c13.9,0 25.2,-11.3 25.2,-25.2c0,-5.1 -1.5,-9.8 -4.1,-13.8c-0.8,-1.3 -1.8,-2.5 -2.8,-3.6c0,0 -0.1,-0.1 -0.1,-0.1c-1,-1.1 -2.2,-2.1 -3.4,-2.9c0,0 -0.1,-0.1 -0.1,-0.1c-0.3,-0.2 -0.7,-0.5 -1.1,-0.7c-0.1,0 -0.1,-0.1 -0.2,-0.1c-0.4,-0.2 -0.8,-0.5 -1.2,-0.7c0,0 0,0 -0.1,0c-0.4,-0.2 -0.9,-0.5 -1.3,-0.7c0,0 -0.1,0 -0.1,0c-0.4,-0.2 -0.8,-0.4 -1.2,-0.5c-0.1,0 -0.2,-0.1 -0.3,-0.1c-0.3,-0.1 -0.7,-0.3 -1,-0.4c-0.1,0 -0.2,-0.1 -0.4,-0.1c-0.4,-0.1 -0.8,-0.3 -1.2,-0.4c-0.1,0 -0.1,0 -0.1,0c-0.5,-0.1 -0.9,-0.2 -1.4,-0.3c-0.1,0 -0.2,0 -0.4,-0.1c-0.4,-0.1 -0.7,-0.1 -1.1,-0.2c-0.2,0 -0.3,0 -0.5,-0.1c-0.3,0 -0.7,-0.1 -1,-0.1c-0.2,0 -0.3,0 -0.5,0c-0.5,0 -1,0 -1.5,0c-0.5,0 -1,0 -1.5,0c-0.1,0 -0.3,0 -0.4,0c-0.4,0 -0.7,0.1 -1.1,0.1c-0.1,0 -0.2,0 -0.4,0c-0.4,0.1 -0.8,0.1 -1.2,0.2c-0.1,0 -0.2,0 -0.3,0c-0.5,0.1 -0.9,0.2 -1.4,0.3c-11,2.7 -19.2,12.7 -19.2,24.5c0.2,13.7 11.5,25.1 25.4,25.1z" fill="none"/>
  <path id="svg_4" d="m262.4,145c-0.1,0 -0.1,0 -0.2,0c-0.4,0 -0.7,-0.1 -1.1,-0.1c-0.4,0 -0.8,0 -1.3,0c-0.5,0 -1,0 -1.6,0.1c-0.2,0 -0.3,0 -0.5,0c-0.4,0 -0.8,0.1 -1.2,0.1c-0.1,0 -0.3,0 -0.4,0.1c-0.5,0.1 -1,0.2 -1.5,0.3c0,0 -0.1,0 -0.1,0c-0.5,0.1 -0.9,0.2 -1.4,0.3c-0.1,0 -0.3,0.1 -0.4,0.1c-0.4,0.1 -0.8,0.2 -1.2,0.4c-0.1,0 -0.2,0.1 -0.3,0.1c-0.5,0.2 -1,0.4 -1.4,0.6c0,0 0,0 0,0c-0.5,0.2 -0.9,0.4 -1.4,0.6c-0.1,0 -0.2,0.1 -0.3,0.1c-0.4,0.2 -0.8,0.4 -1.2,0.7c0,0 -0.1,0 -0.1,0.1c-0.9,0.5 -1.8,1.1 -2.6,1.8c0,0 -0.1,0.1 -0.1,0.1c-1.3,1 -2.4,2.1 -3.5,3.3c0,0 0,0 0,0c-1.1,1.2 -2,2.6 -2.8,4c-2.1,3.7 -3.3,8 -3.3,12.5c0,13.9 11.3,25.2 25.2,25.2c13.9,0 25.2,-11.3 25.2,-25.2c0,-12.2 -8.8,-22.5 -20.3,-24.8c-0.6,-0.2 -1.4,-0.3 -2.2,-0.4z" fill="none"/>
  <path id="svg_5" d="m51.9,195.4c13.9,0 25.2,-11.3 25.2,-25.2s-11.3,-25.2 -25.2,-25.2s-25.2,11.3 -25.2,25.2s11.3,25.2 25.2,25.2z" fill="none"/>
  <path id="svg_6" d="m259.9,214.9c-20.8,0 -38.3,-14.3 -43.3,-33.5l-16.8,0c-5,19.2 -22.5,33.5 -43.3,33.5c-2.4,0 -4.7,-0.2 -6.9,-0.5c-5.8,8.9 -12.7,17.1 -20.8,24.7c-14.3,13.5 -30.5,23.5 -48,29.8l-4.1,1.5l-3.8,-2c-21,-10.8 -31.8,-32.7 -28,-53.9c-2.4,-0.4 -4.7,-1 -6.9,-1.8c-0.4,0.7 -0.7,1.5 -1.1,2.3c-6.4,13.2 -13.1,26.8 -15.5,41.4c-2.6,15.6 -3.7,44.1 18.3,59.3c9.6,6.6 19.7,9.9 31,9.9c21.7,0 45.1,-11.6 69.9,-23.9c19.4,-9.6 39.4,-19.6 60.2,-24.7c7.9,-1.9 15.9,-3.1 23.6,-4.2c14.1,-2 27.5,-4 38.4,-10.3c11.6,-6.7 19.5,-17.9 21.7,-30.7c1.4,-7.8 0.6,-15.7 -2,-23c-6.6,3.8 -14.3,6.1 -22.6,6.1z" fill="none"/>
  <path stroke="null" id="svg_7" d="m347.630223,199.558373c0,-20.733769 -14.254466,-38.178046 -33.39333,-43.162125l42.863081,-126.396247l-212.421454,0l42.962762,126.794974c-18.540774,5.382805 -32.197151,22.528038 -32.197151,42.863081c0,14.952237 7.476119,28.209888 18.839819,36.383778c-4.485671,6.379621 -9.669114,12.260835 -15.550327,17.843003c-11.064656,10.366885 -23.32549,18.341411 -36.583141,23.624535c-11.96179,-8.074208 -17.145232,-22.328675 -12.460198,-35.087917c18.24173,-5.582169 31.49938,-22.627719 31.49938,-42.663718c0,-24.621351 -20.035998,-44.557668 -44.557668,-44.557668c-24.621351,0 -44.657349,20.035998 -44.657349,44.657349c0,12.161153 4.984079,23.32549 12.958606,31.300017c-0.697771,1.395542 -1.395542,2.791084 -2.093313,4.286308c-6.678666,13.756058 -14.254466,29.306385 -17.145232,46.750662c-5.781532,34.888554 3.688219,62.899079 26.515301,78.748451c12.858924,8.871661 27.013709,13.357332 42.264991,13.357332c26.216256,0 52.831239,-13.157969 78.549087,-25.917212c18.341411,-9.071024 37.280912,-18.540774 55.921368,-23.126127c6.878029,-1.694587 14.055103,-2.691403 21.630904,-3.7879c15.350964,-2.192995 31.200336,-4.485671 45.454802,-12.759243c16.646824,-9.669114 28.010525,-25.81753 31.300017,-44.358304c2.49204,-14.254466 0,-28.608614 -6.379621,-41.168494c4.286308,-6.878029 6.678666,-14.952237 6.678666,-23.624535zm-19.437909,0c0,13.85574 -11.264019,25.119759 -25.119759,25.119759c-13.85574,0 -25.119759,-11.264019 -25.119759,-25.119759c0,-4.485671 1.196179,-8.771979 3.289492,-12.460198c0.797453,-1.395542 1.794268,-2.791084 2.791084,-3.987263c0,0 0,0 0,0c0.996816,-1.196179 2.192995,-2.292676 3.488855,-3.289492c0,0 0.099682,-0.099682 0.099682,-0.099682c0.797453,-0.598089 1.694587,-1.196179 2.591721,-1.794268c0,0 0.099682,0 0.099682,-0.099682c0.398726,-0.199363 0.797453,-0.498408 1.196179,-0.697771c0.099682,0 0.199363,-0.099682 0.299045,-0.099682c0.398726,-0.199363 0.897134,-0.398726 1.395542,-0.598089c0,0 0,0 0,0c0.498408,-0.199363 0.996816,-0.398726 1.395542,-0.598089c0.099682,0 0.199363,-0.099682 0.299045,-0.099682c0.398726,-0.099682 0.797453,-0.299045 1.196179,-0.398726c0.099682,0 0.299045,-0.099682 0.398726,-0.099682c0.498408,-0.099682 0.897134,-0.199363 1.395542,-0.299045c0,0 0.099682,0 0.099682,0c0.498408,-0.099682 0.996816,-0.199363 1.495224,-0.299045c0.099682,0 0.299045,0 0.398726,-0.099682c0.398726,0 0.797453,-0.099682 1.196179,-0.099682c0.199363,0 0.299045,0 0.498408,0c0.498408,0 0.996816,-0.099682 1.594905,-0.099682c0.398726,0 0.797453,0 1.295861,0c0.398726,0 0.697771,0 1.096497,0.099682c0.099682,0 0.099682,0 0.199363,0c0.797453,0.099682 1.594905,0.199363 2.392358,0.398726c11.3637,2.392358 20.035998,12.559879 20.035998,24.721033zm-155.702633,-149.622056l156.79913,0l-35.985052,106.160886c-1.495224,0.299045 -2.990447,0.797453 -4.485671,1.295861l-37.879002,-77.253227l-37.978683,76.754819c-1.495224,-0.498408 -3.090129,-0.797453 -4.685034,-1.096497l-35.785688,-105.861841zm71.272332,140.949759c-1.89395,-9.370069 -6.678666,-17.743322 -13.457014,-23.92358l20.634088,-41.666902l20.833451,42.564036c-6.180258,6.180258 -10.665929,14.055103 -12.460198,23.026446l-15.550327,0zm-49.940473,-15.74969c0.498408,-0.099682 0.897134,-0.199363 1.395542,-0.299045c0.099682,0 0.199363,0 0.299045,0c0.398726,-0.099682 0.797453,-0.099682 1.196179,-0.199363c0.099682,0 0.199363,0 0.398726,0c0.398726,0 0.697771,-0.099682 1.096497,-0.099682c0.099682,0 0.299045,0 0.398726,0c0.498408,0 0.996816,0 1.495224,0c0.498408,0 0.996816,0 1.495224,0c0.199363,0 0.299045,0 0.498408,0c0.398726,0 0.697771,0.099682 0.996816,0.099682c0.199363,0 0.299045,0 0.498408,0.099682c0.398726,0.099682 0.697771,0.099682 1.096497,0.199363c0.099682,0 0.199363,0 0.398726,0.099682c0.498408,0.099682 0.996816,0.199363 1.395542,0.299045c0.099682,0 0.099682,0 0.099682,0c0.398726,0.099682 0.797453,0.199363 1.196179,0.398726c0.099682,0 0.199363,0.099682 0.398726,0.099682c0.299045,0.099682 0.697771,0.199363 0.996816,0.398726c0.099682,0 0.199363,0.099682 0.299045,0.099682c0.398726,0.199363 0.797453,0.299045 1.196179,0.498408c0,0 0.099682,0 0.099682,0c0.498408,0.199363 0.897134,0.398726 1.295861,0.697771c0,0 0,0 0.099682,0c0.398726,0.199363 0.797453,0.498408 1.196179,0.697771c0.099682,0 0.099682,0.099682 0.199363,0.099682c0.398726,0.199363 0.697771,0.498408 1.096497,0.697771c0,0 0.099682,0.099682 0.099682,0.099682c1.196179,0.897134 2.292676,1.89395 3.389174,2.890766c0,0 0.099682,0.099682 0.099682,0.099682c0.996816,1.096497 1.993632,2.292676 2.791084,3.588537c2.591721,3.987263 4.086945,8.672298 4.086945,13.756058c0,13.85574 -11.264019,25.119759 -25.119759,25.119759s-25.119759,-11.264019 -25.119759,-25.119759c-0.099682,-11.662745 7.974527,-21.531222 18.939501,-24.322306zm-98.086678,-0.697771c13.85574,0 25.119759,11.264019 25.119759,25.119759s-11.264019,25.119759 -25.119759,25.119759s-25.119759,-11.264019 -25.119759,-25.119759s11.264019,-25.119759 25.119759,-25.119759zm231.859362,86.423933c-2.192995,12.759243 -10.06784,23.92358 -21.630904,30.602246c-10.865293,6.27994 -24.222625,8.273571 -38.277728,10.267203c-7.675482,1.096497 -15.74969,2.292676 -23.524854,4.186626c-20.733769,5.083761 -40.670086,15.051919 -60.008313,24.621351c-24.721033,12.260835 -48.046523,23.823898 -69.677427,23.823898c-11.264019,0 -21.331859,-3.189811 -30.901291,-9.868477c-21.929948,-15.151601 -20.833451,-43.560852 -18.24173,-59.111179c2.392358,-14.553511 9.071024,-28.209888 15.450645,-41.268175c0.398726,-0.797453 0.697771,-1.495224 1.096497,-2.292676c2.192995,0.797453 4.485671,1.395542 6.878029,1.794268c-3.7879,21.132496 6.977711,42.962762 27.910843,53.728373l3.7879,1.993632l4.086945,-1.495224c17.444277,-6.180258 33.592694,-16.248098 47.84716,-29.705112c8.074208,-7.5758 14.952237,-15.74969 20.733769,-24.621351c2.292676,0.398726 4.585353,0.498408 6.878029,0.498408c20.733769,0 38.178046,-14.254466 43.162125,-33.39333l16.746506,0c4.984079,19.238546 22.428356,33.39333 43.162125,33.39333c8.273571,0 15.949053,-2.292676 22.528038,-6.180258c2.591721,7.476119 3.389174,15.251282 1.993632,23.026446z" fill="#CA461A"/>
 </g>
</svg>