<svg xmlns="http://www.w3.org/2000/svg" width="512" height="512" viewBox="0 0 512 512"><path fill="#008cdb" d="M297.875 261.449c-.344-3.34-.702-6.823-1.053-10.519l151.385-36.56-1.011-1.75c-.36-.636-.849-1.509-1.379-2.357-18.133-28.982-45.052-50.23-82.279-64.962-28.157-11.143-59.986-19.157-97.288-24.496-7.023-1.003-12.391-3.218-15.75-10.759-6.6-14.801-13.362-29.234-20.508-44.509a5196.391 5196.391 0 0 1-8.72-18.659l-.407-.881-.906.343c-3.377 1.281-6.916 2.545-10.547 3.847-8.671 3.099-17.635 6.309-26.371 10.334-17.603 8.104-32.604 15.915-45.859 23.875-4.575 2.753-6.777 5.229-7.137 8.031-.375 2.933 1.297 6.04 5.57 10.4 6.144 6.249 12.57 12.407 18.786 18.361l3.271 3.141c10.579 10.143 23.442 24.238 29.128 43.378 8.973 30.206 3.688 59.615-16.143 89.915-19.185 29.295-44.847 52.364-73.959 77.353-9.895 8.496-18.197 17.533-24.666 26.861-12.195 17.582-10.865 34.133 4.07 50.594 11.9 13.112 27.235 22.994 48.264 31.098 36.471 14.062 74.531 18.834 107.199 21.673 5.139.444 9.201.799 12.398.799 10.686 0 12.676-3.984 20.049-18.802l.214-.42c26.665-53.538 38.599-108.957 35.466-164.722-.374-6.659-1.075-13.433-1.817-20.607zm-34.889 164.314c-2.846 7.599-5.105 12.546-8.156 19.193-.905 1.982-1.884 4.12-2.977 6.534-1.697 3.769-4.992 6.016-8.802 6.016-.237 0-.474-.008-.718-.024-11.348-.808-38.697-4.238-58.82-7.341l79.473-24.378zm-126.431-69.779l-57.857 16.873c12.406-26.021 31.926-40.989 51.413-53.13l6.444 36.257zm206.851-130.009c18.256-16.787 31.764-35.287 41.201-56.43 19.617 10.816 33.338 21.71 48.167 38.277-15.71 2.671-30.687 5.967-45.197 9.156-14.152 3.115-28.754 6.325-44.171 8.997zm-43.745-30.577l75.998-27.595 1.158 1.468-46.233 59.224-30.923-33.097zm-47.473 71.325l32.889-10.759 2.839 33.187-35.728-22.428zm34.34 28.19l-48.836 26.412 7.187-49.97 41.649 23.558zm-28.141 125.152L168.179 446.8l30.491-41.201 59.717 14.466zm23.867-58.285l-2.668 9.127c-4.135 14.181-8.051 27.579-12.25 41.046-.213.677-2.586 2.047-4.316 2.039-20.294-3.577-38.443-9.164-55.387-17.064l74.621-35.148zm-97.721 43.591l-25.148 39.867-3.621-1.554c-12.603-5.404-34.707-14.874-41.2-18.169 11.021-3.087 22.269-6.367 34.136-9.829 11.771-3.435 23.908-6.975 35.833-10.315zm-5.212-9.663l-71.129 25.091-.954-1.248 40.075-49.99 32.008 26.147zM168.726 75.621L218.263 55.2l8.728 29.789-58.265-9.368zm79.309 86.684l-6.591-34.316 51.813 9.454-45.222 24.862zm6.248 8.965l48.33-29.993 1.967 1.322-18.818 43.974-31.479-15.303zm-34.772 169.016l-25.776 51.193-36.396-29.993 62.172-21.2zm-69.465 7.313c-5.587-10.587-7.081-21.302-4.723-33.554.302-1.565 1.721-3.516 3.042-4.176 7.537-3.781 15.311-7.423 22.823-10.942l6.917-3.247.881.865-28.94 51.054zm44.472-118.533l10.897 6.579-20.669 15.56 9.772-22.139zm44.047-112.925c-3.825-.58-7.268-1.097-10.71-1.64-3.549-.555-7.09-1.13-11.077-1.778l-3.394-.551 19.446-13.981 9.78 18.565-4.045-.615zm-4.625 100.636l11.794-32.583 25.059 12.374-36.853 20.209zm-67.997 130.194l26.364-54.606 26.526 36.11-52.89 18.496zm49.228-100.302c.595.738 1.272 1.57 1.819 2.455 3.898 6.338 5.979 10.547 5.065 13.308-.905 2.724-4.78 4.714-11.624 7.439-9.078 3.622-18.279 7.443-27.18 11.139-2.332.966-4.656 1.937-6.998 2.903l38.918-37.244zm13.891-69.604l-30.645 27.856V167.93l30.645 9.135zm5.514 10.698l-16.982 39.398-16.607-12.451 32.244-27.722 1.345.775zm-34.373-33.121l32.326-27.305 1.941.604 3.907 37.693-38.174-10.992zm24.821 166.096l-25.458-34.121 35.524-13.879-7.554 47.347-2.512.653zm42.335-109.536l.987 1.052-37.775 48.183-6.681-25.091 43.469-24.144zm-74.513-103.454c-6.664-6.652-12.848-13.521-18.835-20.156-1.198-1.338-2.39-2.655-3.548-3.94l55.67 10.257c-1.785 1.028-3.555 2.06-5.309 3.083-6.982 4.07-13.582 7.913-20.49 11.392-.709.359-1.827.562-3.06.562-1.899 0-3.719-.493-4.428-1.198zm-53.673-12.681c-.245-1.994 8.287-7.113 13.394-10.172 1.664-.999 3.312-1.986 4.805-2.924 3.793 4.739 7.26 9.071 10.611 13.263l8.558 10.698-.155.277c-11.347-2.708-22.416-5.881-35.793-10.262-1.013-.304-1.396-.651-1.42-.88zm41.584 41.707c-8.564-10.286-16.901-19.335-24.854-26.983 19.781 5.057 22.056 8.556 24.854 26.983zm42.685-11.493l-30.254 22-10.931-29.822 41.185 7.822zM161.58 284.753c8.858-15.192 23.271-24.385 37.254-33.305l.056-.037.489.571-37.799 32.771zm118.602 71.635l-68.607 27.889 20.727-47.155 47.88 19.266zm40.654-124.365l-76.283 24.353 43.362-49.807 32.921 25.454zm-20.881-48.864l12.014-41.67 58.111 19.679-.131.293-69.994 21.698zM137.639 365.667l-34.855 49.44c-11.94-6.808-22.569-22.783-23.809-35.777l58.664-13.663zm150.733-64.33l-3.997 50.944-45.238-21.351 49.235-29.593z"/></svg>