<svg xmlns="http://www.w3.org/2000/svg" viewBox="103 -68 256 186" enable-background="new 103 -68 256 186"><path fill="#809CC8" d="M103-68V-.9C170.6-29 277.9-54.6 350.1-68H103zm256 14.3C209.6-31.5 92.4 21.4 228.5 9.4 277.9 5 315 0 359-2.7v-51zm-74.9 85.2c-42.4.5-123.3 12-181.1 15.2v54.5C284.2 74.7 347.6 32 284.1 31.5zM359 50.6c-72.7 28.5-186 55.8-256 66.4v.5h256V50.6zM116.3 65.5c-1.1 2.6-5 1.6-4.8-1.2.1-3.7 6.5-2.5 4.8 1.2zm6.3 1.5c-3.2-.1-3.2-5 .2-5 3.4 0 3 5.3-.2 5zm-6.2 12.8c.8 2.8-2.9 4.5-4.4 2.2-2.3-3.2 3.3-5.7 4.4-2.2zm7.8 2.7c-3.7 2.8-6.1-4.6-1.4-4.4 2.3 0 3.3 3.1 1.4 4.4z"/></svg>